# xmcd
#
# Track frame offsets:
#	150
#	13895
#	31780
#	43052
#	54205
#	79060
#	101522
#	115440
#	130412
#	147247
#	162350
#	178317
#
# Disc length: 2608 seconds
#
# Revision: 4
# Processed by: cddbd v1.5.1PL0 Copyright (c) Steve Scherf et al.
# Submitted via: audiograbber 1.83.01
#
DISCID=a20a2e0c
DTITLE=Billy Bragg And The Blokes - England, Half-English
DYEAR=2002
DGENRE=Alternative
TTITLE0=St. Monday
TTITLE1=Jane Allen
TTITLE2=Distant Shore
TTITLE3=England, Half-English
TTITLE4=NPWA
TTITLE5=Some Days I See The Point
TTITLE6=Baby Faroukh
TTITLE7=Take Down The Union Jack
TTITLE8=Another Kind Of Judy
TTITLE9=He'll Go Down
TTITLE10=Dreadbelly
TTITLE11=Tears Of My Tracks
EXTD=YEAR: 2002 ID3G: 115
EXTT0=
EXTT1=
EXTT2=
EXTT3=
EXTT4=
EXTT5=
EXTT6=
EXTT7=
EXTT8=
EXTT9=
EXTT10=
EXTT11=
PLAYORDER=
